<?xml version="1.0" encoding="iso-8859-1"?>
<!-- Generator: Adobe Illustrator 19.0.0, SVG Export Plug-In . SVG Version: 6.00 Build 0)  -->
<svg version="1.1" id="Capa_1" xmlns="http://www.w3.org/2000/svg" xmlns:xlink="http://www.w3.org/1999/xlink" x="0px" y="0px"
	 viewBox="0 0 60 60" style="enable-background:new 0 0 60 60;" xml:space="preserve">
<path style="fill:#F3D55B;stroke:#F29C1F;stroke-width:2;stroke-linecap:round;stroke-linejoin:round;stroke-miterlimit:10;" d="
	M52.247,20.665c-0.803,0-1.544,0.257-2.154,0.687c0.041-0.223,0.069-0.452,0.069-0.687c0-2.073-1.68-3.752-3.753-3.752
	c-2.073,0-3.753,1.68-3.753,3.752c0,0.114,0.017,0.224,0.027,0.335H34v-6.673c1.997-0.085,3.594-1.719,3.594-3.737
	c0-2.073-1.68-3.753-3.753-3.753c-0.08,0-0.154,0.019-0.232,0.023c0.409-0.601,0.649-1.326,0.649-2.108
	C34.258,2.68,32.578,1,30.505,1s-3.753,1.68-3.753,3.753c0,0.803,0.257,1.544,0.687,2.154c-0.223-0.042-0.452-0.069-0.687-0.069
	C24.68,6.837,23,8.518,23,10.59c0,2.073,1.68,3.753,3.753,3.753c0.084,0,0.164-0.015,0.247-0.02V21h-9.673
	c-0.085-1.997-1.719-3.594-3.737-3.594c-2.073,0-3.753,1.68-3.753,3.753c0,0.08,0.018,0.154,0.023,0.232
	c-0.601-0.409-1.326-0.649-2.108-0.649C5.68,20.742,4,22.422,4,24.495s1.68,3.753,3.753,3.753c0.803,0,1.544-0.257,2.154-0.687
	c-0.041,0.223-0.069,0.452-0.069,0.687c0,2.073,1.68,3.753,3.753,3.753c2.073,0,3.753-1.68,3.753-3.753
	c0-0.084-0.015-0.165-0.02-0.247H27v17.682c-1.955,0.129-3.506,1.74-3.506,3.728c0,2.073,1.68,3.753,3.753,3.753
	c0.08,0,0.154-0.019,0.232-0.023c-0.409,0.601-0.649,1.326-0.649,2.108c0,2.073,1.68,3.753,3.753,3.753s3.753-1.68,3.753-3.753
	c0-0.803-0.257-1.544-0.687-2.154c0.223,0.041,0.452,0.069,0.687,0.069c2.073,0,3.753-1.68,3.753-3.753
	c0-2.073-1.68-3.752-3.753-3.752c-0.114,0-0.223,0.017-0.335,0.027V28h8.682c0.129,1.956,1.74,3.506,3.728,3.506
	c2.073,0,3.753-1.68,3.753-3.753c0-0.079-0.018-0.154-0.023-0.232c0.601,0.409,1.326,0.649,2.108,0.649
	c2.073,0,3.753-1.68,3.753-3.752C56,22.345,54.32,20.665,52.247,20.665z"/>
<g>
</g>
<g>
</g>
<g>
</g>
<g>
</g>
<g>
</g>
<g>
</g>
<g>
</g>
<g>
</g>
<g>
</g>
<g>
</g>
<g>
</g>
<g>
</g>
<g>
</g>
<g>
</g>
<g>
</g>
</svg>
